<svg width="16" height="16" viewBox="0 0 16 16" fill="none" xmlns="http://www.w3.org/2000/svg">
<path d="M12.6667 14.667C12.6667 15.0352 12.3683 15.3337 12.0001 15.3337C11.6319 15.3337 11.3334 15.0352 11.3334 14.667C11.3334 14.2988 11.6319 14.0003 12.0001 14.0003C12.3683 14.0003 12.6667 14.2988 12.6667 14.667Z" fill="#FFB444"/>
<path d="M15.3334 12.0003C15.3334 12.3685 15.0349 12.667 14.6667 12.667C14.2986 12.667 14.0001 12.3685 14.0001 12.0003C14.0001 11.6321 14.2986 11.3337 14.6667 11.3337C15.0349 11.3337 15.3334 11.6321 15.3334 12.0003Z" fill="#FFB444"/>
<path d="M2.00008 4.00033C2.00008 4.36852 1.7016 4.66699 1.33341 4.66699C0.965225 4.66699 0.666748 4.36852 0.666748 4.00033C0.666748 3.63214 0.965225 3.33366 1.33341 3.33366C1.7016 3.33366 2.00008 3.63214 2.00008 4.00033Z" fill="#FFB444"/>
<path d="M4.66675 1.33366C4.66675 1.70185 4.36827 2.00033 4.00008 2.00033C3.63189 2.00033 3.33341 1.70185 3.33341 1.33366C3.33341 0.965469 3.63189 0.666992 4.00008 0.666992C4.36827 0.666992 4.66675 0.965469 4.66675 1.33366Z" fill="#FFB444"/>
<path fill-rule="evenodd" clip-rule="evenodd" d="M8.00008 4.32227L7.56528 6.11537C7.39148 6.83211 6.83187 7.39173 6.11513 7.56552L4.32203 8.00033L6.11513 8.43513C6.83187 8.60893 7.39148 9.16854 7.56528 9.88528L8.00008 11.6784L8.43488 9.88528C8.60868 9.16854 9.16829 8.60893 9.88503 8.43513L11.6781 8.00033L9.88503 7.56552C9.16829 7.39173 8.60868 6.83211 8.43488 6.11537L8.00008 4.32227ZM8.87024 3.35137C8.64897 2.43887 7.35119 2.43887 7.12992 3.35137L6.52109 5.86217C6.44209 6.18796 6.18772 6.44233 5.86193 6.52133L3.35112 7.13017C2.43862 7.35143 2.43862 8.64922 3.35112 8.87049L5.86193 9.47932C6.18772 9.55832 6.44209 9.81269 6.52109 10.1385L7.12992 12.6493C7.35119 13.5618 8.64897 13.5618 8.87024 12.6493L9.47908 10.1385C9.55807 9.81269 9.81244 9.55832 10.1382 9.47932L12.649 8.87049C13.5615 8.64922 13.5615 7.35143 12.649 7.13017L10.1382 6.52133C9.81244 6.44233 9.55807 6.18796 9.47907 5.86217L8.87024 3.35137Z" fill="#FFB444"/>
<path fill-rule="evenodd" clip-rule="evenodd" d="M6.00316 14.8768C5.88729 15.1872 5.54169 15.345 5.23124 15.2291C3.22028 14.4785 1.60496 12.9204 0.779904 10.9489C0.65198 10.6432 0.796081 10.2917 1.10176 10.1638C1.40745 10.0358 1.75896 10.1799 1.88688 10.4856C2.58422 12.152 3.95111 13.4705 5.65085 14.1049C5.9613 14.2207 6.11904 14.5663 6.00316 14.8768Z" fill="#FFB444"/>
<path fill-rule="evenodd" clip-rule="evenodd" d="M14.877 6.01417C14.5666 6.13028 14.2209 5.97281 14.1048 5.66245C13.4654 3.95335 12.1315 2.5808 10.4463 1.88866C10.1398 1.76277 9.99335 1.41222 10.1192 1.1057C10.2451 0.799173 10.5957 0.652747 10.9022 0.778644C12.8952 1.59721 14.4718 3.21898 15.2287 5.24197C15.3448 5.55233 15.1873 5.89806 14.877 6.01417Z" fill="#FFB444"/>
<path d="M8.00008 4.32227L7.56528 6.11537C7.39148 6.83211 6.83187 7.39173 6.11513 7.56552L4.32203 8.00033L6.11513 8.43513C6.83187 8.60893 7.39148 9.16854 7.56528 9.88528L8.00008 11.6784L8.43488 9.88528C8.60868 9.16854 9.16829 8.60893 9.88503 8.43513L11.6781 8.00033L9.88503 7.56552C9.16829 7.39173 8.60868 6.83211 8.43488 6.11537L8.00008 4.32227Z" fill="#FFB444"/>
</svg>
