<svg width="129" height="33" viewBox="0 0 129 33" fill="none" xmlns="http://www.w3.org/2000/svg">
<g clip-path="url(#clip0_375_3076)">
<path d="M24.4252 1.98005C24.5116 1.69619 25.6654 1.79592 25.948 1.8573L26.0579 2.08746L26.0422 21.8197C24.2761 34.5705 5.74394 36.8107 1.1364 24.5739C0.241583 22.1956 0.296528 19.8557 0.343624 17.347H13.138V30.6808C13.138 30.6808 13.2793 31.0721 13.3264 31.0874C17.926 31.2255 22.2588 28.0954 23.7738 23.9295C23.915 23.5459 24.4174 22.8214 24.4174 21.72C24.4174 20.6186 24.4174 17.4083 24.4174 17.4083L24.2447 17.2396H13.2479V15.6515H24.2447L24.4174 15.4827V1.98005H24.4252ZM11.7408 21.6663L6.6937 19.8864L1.85069 21.7277C1.84284 21.9195 2.01552 22.0269 2.17251 22.0959C3.47549 22.6866 5.31222 23.0472 6.68585 23.6073L10.5242 22.3721C11.0187 22.6866 10.3515 24.62 10.9873 24.62C11.6231 24.62 11.0815 23.5229 11.0501 23.3081C11.0187 23.1009 11.003 22.4718 11.0579 22.3107C11.1442 22.0729 11.8193 22.0959 11.7408 21.674V21.6663ZM9.88051 23.2544C9.64503 23.0319 7.29809 24.1673 6.6937 24.152C6.14425 24.1366 3.94645 23.0396 3.71882 23.2544L3.73452 24.6583C5.43781 25.7554 8.03593 25.6864 9.82557 24.7351L9.88051 23.2544Z" fill="#030287"/>
<path d="M24.3079 0.21582V1.80391H13.2561C13.3189 1.94968 13.1383 2.14148 13.1383 2.20286V15.6518H0.516678L0.343994 15.483V2.08778C0.343994 2.08778 0.50098 1.91899 0.461734 1.80391H2.08654V0.21582H24.3079ZM4.40993 11.5626C4.81024 11.6547 5.35969 11.8465 5.68936 11.5089V9.46819C6.3644 9.14597 7.18072 9.36846 7.96565 9.07693C9.28433 8.58592 9.56691 6.69095 8.47586 5.84703C8.31102 5.71661 7.52609 5.32534 7.37696 5.32534H4.58261L4.40993 5.49412V11.5626Z" fill="#030287"/>
<path d="M112.785 23.2546C112.722 23.2469 112.605 23.1395 112.51 23.1242L112.487 22.9784C112.502 21.421 112.487 19.8712 112.487 18.3138C112.487 17.562 112.628 16.8869 112.479 16.0583C112.039 13.5726 108.287 13.3424 107.408 15.6287C107.369 15.7284 107.141 16.5646 107.141 16.6183V23.0858L106.969 23.2546H104.528L104.355 23.0858V16.2808C104.355 16.2117 103.892 15.1453 103.805 15.0072C103.052 13.7874 100.611 13.8027 99.6218 14.7847C99.5355 14.8768 99.0017 15.7667 99.0017 15.8281V23.1472C98.884 23.1088 98.7505 23.2622 98.7113 23.2622H96.1524L95.9797 23.0935V11.9768L96.1524 11.808H98.829C99.1508 12.0612 98.9546 12.5292 99.0017 12.8821L99.2921 12.9511C100.556 11.3093 103.374 11.271 105.108 12.2683C105.729 12.6289 106.074 13.2197 106.616 13.6416L106.796 13.5802C108.758 10.6802 113.782 10.9948 115.108 14.3167C115.273 14.7387 115.517 15.6517 115.517 16.0736V23.1088L115.344 23.2776C114.567 23.1855 113.523 23.4003 112.785 23.2776V23.2546Z" fill="#030287"/>
<path d="M64.2136 13.0431H60.9562C59.8102 10.7031 55.9797 10.6724 54.2529 12.3986C52.2434 14.4087 52.5025 18.5822 55.0142 20.1473C56.5841 21.1293 59.3941 21.0219 60.7364 19.6793C60.964 19.4491 62.3612 17.347 61.6076 17.347H56.7803V15.1912H64.6924C65.5951 18.8584 62.7693 22.6177 59.0409 23.2391C52.3455 24.3592 47.683 17.8687 50.9248 12.1454C53.3188 7.91052 60.1791 7.27375 63.2952 11.056C63.7191 11.5777 64.2607 12.3603 64.2293 13.0431H64.2136Z" fill="#030287"/>
<path d="M90.1553 23.2545L90.0376 21.6664C88.2401 23.592 85.5086 24.037 83.2401 22.5717C79.8257 20.3698 79.9199 14.0635 83.6169 12.1685C85.7519 11.0714 88.2087 11.478 89.8649 13.1582L90.1553 12.9894V7.99496L90.328 7.82617H92.7692L92.9418 7.99496V23.0857L92.7692 23.2545H90.1553ZM86.4034 14.0942C83.3579 14.4854 82.8163 19.0886 85.3437 20.5156C86.4426 21.137 87.7849 21.0219 88.7974 20.2854C91.3955 18.3905 90.0219 13.6262 86.4034 14.0942Z" fill="#030287"/>
<path d="M78.5229 23.1386L75.7207 23.1999C75.5166 23.0618 75.6344 22.2409 75.6108 21.9417C75.5951 21.7883 75.6971 21.5965 75.4381 21.6579C75.3753 21.6732 74.6924 22.4404 74.5041 22.5632C72.3847 24.0055 69.4177 23.5375 67.7537 21.6579C63.7113 17.0777 68.3581 9.04518 74.1194 12.1523C74.6924 12.4592 75.0221 13.0193 75.603 13.2571C75.7207 13.119 75.4067 11.9912 75.7756 11.7841H78.3345L78.5072 11.9529V23.1309L78.5229 23.1386ZM71.8588 14.0933C67.9813 14.6457 68.3973 21.6349 73.1932 20.8446C76.7254 20.2692 76.4036 13.4489 71.8588 14.0933Z" fill="#030287"/>
<path d="M37.6829 8.83802L42.6122 8.73828C43.4992 8.90706 44.2292 8.77664 45.124 9.01447C49.9513 10.2803 49.3862 16.9396 44.449 17.5457C43.405 17.6761 42.2355 17.4613 41.2229 17.5764C40.9639 17.6071 40.7598 17.6608 40.5871 17.8602V23.0772L40.4144 23.2459H37.8555L37.6829 23.0772V8.83802ZM40.595 15.3055C42.4474 15.5433 45.4772 15.7581 45.4772 13.2034C45.4772 10.6486 42.4474 10.8481 40.595 11.1012V15.2978V15.3055Z" fill="#030287"/>
<path d="M127.848 14.0635L127.738 20.0169C127.777 20.3852 128.397 20.8762 128.719 20.8762H130.406V23.0857L130.234 23.2545H127.91C127.801 23.2545 126.788 22.986 126.623 22.9169C123.774 21.7968 124.983 16.6029 124.692 14.2476L124.52 14.0789L123.538 14.0175L123.483 11.9077L124.52 11.7849L124.692 11.6162C124.802 10.7569 124.535 9.79791 124.849 8.99235C125.045 8.80055 126.953 8.80055 127.33 8.84658C127.502 8.8696 127.628 8.86193 127.73 9.02304V11.5164C127.73 11.5164 127.997 11.8003 128.02 11.8003H130.234L130.406 11.9691V13.8947L130.234 14.0635H127.848Z" fill="#030287"/>
<path d="M118.311 23.1388V11.9608L118.483 11.792H121.16L121.333 11.9608V23.0774L121.16 23.2462H118.601C118.601 23.2462 118.42 23.0928 118.311 23.1311V23.1388Z" fill="#030287"/>
<path d="M21.7489 22.0035C22.5024 25.1183 17.8949 26.7064 16.1131 24.1517C13.6641 20.6379 19.1194 17.1625 21.3564 20.5152C21.4428 20.6456 21.7096 20.8988 21.5212 21.0445C21.3564 21.1366 20.5008 21.1366 20.3125 21.0752C20.2104 21.0445 19.763 20.4691 19.3156 20.354C16.168 19.5331 15.9247 24.7961 19.1272 24.3742C20.0691 24.2514 21.0032 22.9088 20.4145 22.9088H18.672C18.3972 22.9088 18.5228 22.1876 18.617 22.0035H21.7567H21.7489Z" fill="#030287"/>
<path d="M15.8696 8.16335C14.3703 7.91784 14.441 5.83107 15.8696 5.66229C16.7173 5.56255 17.7377 5.73901 18.609 5.66229L18.7189 6.63663C19.2055 6.78239 18.9857 6.207 19.598 6.69033L19.8727 6.49853L19.8884 5.66229H22.565C22.5258 5.77737 22.6827 5.90779 22.6827 5.94615V7.87181C22.6827 7.87181 22.5258 8.04059 22.565 8.15567H15.8774L15.8696 8.16335Z" fill="#030287"/>
<path d="M15.642 11.3396C14.8806 11.1785 14.5823 10.1504 14.912 9.49065C15.4301 8.46261 17.4552 8.9306 18.4206 8.85388L18.5933 9.02266L18.609 9.8589C19.1506 9.8589 19.237 9.48298 19.7158 9.96631C19.9748 9.95097 19.8806 9.05335 19.8885 8.83086H22.5023L22.675 8.99964V11.1555L22.5023 11.3242H15.642V11.3396Z" fill="#030287"/>
<path d="M118.483 9.68997C117.196 8.21695 119.151 6.17621 120.901 7.2733C121.639 7.73362 121.819 8.53917 121.521 9.32171C121.066 10.5185 119.261 10.5953 118.476 9.68997H118.483Z" fill="#030287"/>
<path d="M5.68921 6.45952L5.7991 8.10899C6.59973 8.23174 7.80852 8.33147 7.72217 7.23438C7.63583 6.13729 6.51338 6.52089 5.68921 6.45952Z" fill="#030287"/>
<path d="M5.68921 6.45976C6.50554 6.52114 7.62798 6.1222 7.72217 7.23463C7.81637 8.34706 6.59973 8.23198 5.7991 8.10923L5.68921 6.45976Z" fill="#030287"/>
</g>
<defs>
<clipPath id="clip0_375_3076">
<rect width="129" height="33" fill="white"/>
</clipPath>
</defs>
</svg>
