<svg width="26" height="33" viewBox="0 0 26 33" fill="none" xmlns="http://www.w3.org/2000/svg">
<g clip-path="url(#clip0_375_4197)">
<path d="M24.4252 1.98005C24.5116 1.69619 25.6654 1.79592 25.948 1.8573L26.0579 2.08746L26.0422 21.8197C24.2761 34.5705 5.74394 36.8107 1.1364 24.5739C0.241583 22.1956 0.296528 19.8557 0.343624 17.347H13.138V30.6808C13.138 30.6808 13.2793 31.0721 13.3264 31.0874C17.926 31.2255 22.2588 28.0954 23.7738 23.9295C23.915 23.5459 24.4174 22.8214 24.4174 21.72C24.4174 20.6186 24.4174 17.4083 24.4174 17.4083L24.2447 17.2396H13.2479V15.6515H24.2447L24.4174 15.4827V1.98005H24.4252ZM11.7408 21.6663L6.6937 19.8864L1.85069 21.7277C1.84284 21.9195 2.01552 22.0269 2.17251 22.0959C3.47549 22.6866 5.31222 23.0472 6.68585 23.6073L10.5242 22.3721C11.0187 22.6866 10.3515 24.62 10.9873 24.62C11.6231 24.62 11.0815 23.5229 11.0501 23.3081C11.0187 23.1009 11.003 22.4718 11.0579 22.3107C11.1442 22.0729 11.8193 22.0959 11.7408 21.674V21.6663ZM9.88051 23.2544C9.64503 23.0319 7.29809 24.1673 6.6937 24.152C6.14425 24.1366 3.94645 23.0396 3.71882 23.2544L3.73452 24.6583C5.43781 25.7554 8.03593 25.6864 9.82557 24.7351L9.88051 23.2544Z" fill="#070529"/>
<path d="M24.3079 0.21582V1.80391H13.2561C13.3189 1.94968 13.1383 2.14148 13.1383 2.20286V15.6518H0.516678L0.343994 15.483V2.08778C0.343994 2.08778 0.50098 1.91899 0.461734 1.80391H2.08654V0.21582H24.3079ZM4.40993 11.5626C4.81024 11.6547 5.35969 11.8465 5.68936 11.5089V9.46819C6.3644 9.14597 7.18072 9.36846 7.96565 9.07693C9.28433 8.58592 9.56691 6.69095 8.47586 5.84703C8.31102 5.71661 7.52609 5.32534 7.37696 5.32534H4.58261L4.40993 5.49412V11.5626Z" fill="#070529"/>
<path d="M21.7489 22.0035C22.5024 25.1183 17.8949 26.7064 16.1131 24.1517C13.6641 20.6379 19.1194 17.1625 21.3564 20.5152C21.4428 20.6456 21.7096 20.8988 21.5212 21.0445C21.3564 21.1366 20.5008 21.1366 20.3125 21.0752C20.2104 21.0445 19.763 20.4691 19.3156 20.354C16.168 19.5331 15.9247 24.7961 19.1272 24.3742C20.0691 24.2514 21.0032 22.9088 20.4145 22.9088H18.672C18.3972 22.9088 18.5228 22.1876 18.617 22.0035H21.7567H21.7489Z" fill="#070529"/>
<path d="M15.8696 8.16335C14.3703 7.91784 14.441 5.83107 15.8696 5.66229C16.7173 5.56255 17.7377 5.73901 18.609 5.66229L18.7189 6.63663C19.2055 6.78239 18.9857 6.207 19.598 6.69033L19.8727 6.49853L19.8884 5.66229H22.565C22.5258 5.77737 22.6827 5.90779 22.6827 5.94615V7.87181C22.6827 7.87181 22.5258 8.04059 22.565 8.15567H15.8774L15.8696 8.16335Z" fill="#070529"/>
<path d="M15.642 11.3396C14.8806 11.1785 14.5823 10.1504 14.912 9.49065C15.4301 8.46261 17.4552 8.9306 18.4206 8.85388L18.5933 9.02266L18.609 9.8589C19.1506 9.8589 19.237 9.48298 19.7158 9.96631C19.9748 9.95097 19.8806 9.05335 19.8885 8.83086H22.5023L22.675 8.99964V11.1555L22.5023 11.3242H15.642V11.3396Z" fill="#070529"/>
<path d="M5.68921 6.45952L5.7991 8.10899C6.59973 8.23174 7.80852 8.33147 7.72217 7.23438C7.63583 6.13729 6.51338 6.52089 5.68921 6.45952Z" fill="#070529"/>
<path d="M5.68921 6.45976C6.50554 6.52114 7.62798 6.1222 7.72217 7.23463C7.81637 8.34706 6.59973 8.23198 5.7991 8.10923L5.68921 6.45976Z" fill="#070529"/>
</g>
<defs>
<clipPath id="clip0_375_4197">
<rect width="26" height="33" fill="white"/>
</clipPath>
</defs>
</svg>
